<svg viewBox="0 0 32 32" xmlns="http://www.w3.org/2000/svg"><defs><linearGradient x1="50%" y1="0%" x2="50%" y2="100%" id="a"><stop stop-color="#0B0327" offset="0%"/><stop stop-color="#160555" offset="100%"/></linearGradient></defs><g fill="none"><circle fill="url(#a)" cx="16" cy="16" r="16"/><path d="M10.833 12.254a.663.663 0 00-.517-.237h-4.19a.122.122 0 01-.09-.035.107.107 0 01-.036-.077V9.112c0-.028.012-.054.035-.077A.124.124 0 016.125 9h4.429c1.116 0 2.08.452 2.89 1.355l1.076 1.299-2.095 2.528-1.592-1.928zm7.737-1.913C19.38 9.447 20.348 9 21.475 9h4.413c.038 0 .066.01.084.028.019.019.028.046.028.084v2.793a.12.12 0 01-.028.077c-.018.023-.046.035-.084.035h-4.19a.661.661 0 00-.516.237l-3.087 3.715 3.101 3.743c.14.15.307.224.503.224h4.19c.037 0 .065.012.083.035a.142.142 0 01.028.09v2.794a.12.12 0 01-.028.077c-.018.023-.046.035-.084.035h-4.413c-1.126 0-2.09-.452-2.89-1.355l-2.57-3.1-2.57 3.1c-.811.903-1.78 1.355-2.905 1.355H6.126c-.037 0-.066-.012-.084-.035a.142.142 0 01-.028-.091v-2.794a.12.12 0 01.028-.076c.018-.024.047-.035.084-.035h4.19a.69.69 0 00.517-.238l3.03-3.659 4.707-5.698z" fill="#00D1FF"/></g></svg>