<svg width="24" height="24" fill="none" xmlns="http://www.w3.org/2000/svg"><path fill-rule="evenodd" clip-rule="evenodd" d="M6 0a6 6 0 00-6 6v12a6 6 0 006 6h12a6 6 0 006-6V6a6 6 0 00-6-6H6zm8.7 12a2.7 2.7 0 11-5.4 0 2.7 2.7 0 015.4 0zm1.8 0a4.5 4.5 0 11-9 0 4.5 4.5 0 019 0zm1.8-4.95a1.35 1.35 0 11-2.7 0 1.35 1.35 0 012.7 0zM6.6 3A3.6 3.6 0 003 6.6v10.8A3.6 3.6 0 006.6 21h10.8a3.6 3.6 0 003.6-3.6V6.6A3.6 3.6 0 0017.4 3H6.6zM4.8 6.6a1.8 1.8 0 011.8-1.8h10.8a1.8 1.8 0 011.8 1.8v10.8a1.8 1.8 0 01-1.8 1.8H6.6a1.8 1.8 0 01-1.8-1.8V6.6z" fill="#fff"/></svg>