<svg width="180" height="68" fill="none" xmlns="http://www.w3.org/2000/svg"><path d="M47.267 35.533c0-.219-.218-.657-.218-.876l-4.584-4.598a1.06 1.06 0 010-1.533l3.056-3.065a1.053 1.053 0 011.528 0l6.548 6.569c.218.219.218.438.218.876v17.517c0 .657-.436 1.094-1.091 1.094h-4.366c-.654 0-1.09-.438-1.09-1.094v-14.89zm84.472 23.648c3.055 0 5.456-2.408 5.456-5.474 0-3.065-2.401-5.474-5.456-5.474-3.056 0-5.457 2.409-5.457 5.474 0 3.066 2.401 5.474 5.457 5.474zM32.861 43.635c-.655 0-1.091.438-1.091 1.095v9.634c0 .219-.218.657-.218.876l-7.64 7.663a1.053 1.053 0 01-1.528 0l-3.056-3.065a1.06 1.06 0 010-1.533l5.457-5.693c.218-.219.218-.438.218-.876V44.73c0-.657-.436-1.095-1.091-1.095h-4.365c-.655 0-1.092-.438-1.092-1.095v-4.38c0-.656.437-1.094 1.092-1.094h4.365c.655 0 1.091-.438 1.091-1.095v-7.664c0-.656.437-1.094 1.092-1.094h4.365c.655 0 1.091.438 1.091 1.094v7.664c0 .657.437 1.095 1.092 1.095h8.73c.656 0 1.092.438 1.092 1.095v24.304c0 .657-.437 1.095-1.091 1.095h-7.422c-.654 0-1.09-.438-1.09-1.095v-4.379c0-.657.436-1.094 1.09-1.094h1.092c.655 0 1.091-.438 1.091-1.095V44.949c0-.657-.436-1.095-1.091-1.095H32.86v-.22zm50.64 4.16c.218-.219.436-.876.218-1.095a1.2 1.2 0 00-1.092-.657H70.186c-.655 0-1.092-.438-1.092-1.094v-4.38c0-.657.437-1.095 1.092-1.095h8.076c.218 0 .655-.218.873-.218l2.183-2.19c.218-.22.436-.876.218-1.095a1.2 1.2 0 00-1.091-.657h-1.528c-.655 0-1.092-.438-1.092-1.095V29.84c0-.657.437-1.095 1.092-1.095h17.461a1.2 1.2 0 011.092.657c.218.438 0 .876-.219 1.095l-7.203 7.226c-.218.219-.436.876-.218 1.095a1.2 1.2 0 001.092.657h12.441c.655 0 1.091.437 1.091 1.094v4.38c0 .656-.436 1.094-1.091 1.094h-8.076c-.218 0-.655.22-.873.22l-6.548 6.568a1.06 1.06 0 000 1.533l5.02 5.036a1.06 1.06 0 010 1.533l-3.056 3.065a1.053 1.053 0 01-1.528 0l-9.604-9.634a1.06 1.06 0 010-1.533l4.802-5.036zm55.877-9.634c0 .657.437 1.094 1.091 1.094h2.183c.655 0 1.091-.437 1.091-1.094v-2.19c0-.657-.436-1.095-1.091-1.095h-2.183c-.654 0-1.091.438-1.091 1.095v2.19zm-8.731 0c0 .657.437 1.094 1.092 1.094.654 0 1.091-.437 1.091-1.094v-2.19c0-.657-.437-1.095-1.091-1.095-.655 0-1.092.438-1.092 1.095v2.19zm-3.274-9.854c.655 0 1.091-.438 1.091-1.094v-1.095c0-.657.437-1.095 1.092-1.095h4.365c.655 0 1.092.438 1.092 1.095v1.095c0 .656.436 1.094 1.091 1.094h25.101a1.2 1.2 0 011.092.657c.218.438 0 .876-.219 1.095l-7.203 7.226c-.218.219-.436.876-.218 1.095.218.219.655.656 1.091.656h5.676a1.2 1.2 0 011.091.657c.218.438 0 .876-.218 1.095l-11.351 11.386c-.218.22-.218.438-.218.876v10.51c0 .657-.436 1.095-1.091 1.095h-4.366c-.654 0-1.091-.438-1.091-1.095V46.92c0-.658-.437-1.096-1.091-1.096-.219 0-.655.22-.655.438-.218.22-.218.657 0 .876 1.528 2.409 2.183 5.474 1.528 8.759-.873 4.598-4.584 8.54-9.168 9.415-7.857 1.533-14.624-4.38-14.624-11.824 0-2.627.873-5.255 2.401-7.226v-.219l-.218-.219c-.655 0-1.092-.438-1.092-1.094v-4.38c0-.657.437-1.095 1.092-1.095h1.091c.655 0 1.092-.437 1.092-1.094v-2.19c0-.657-.437-1.095-1.092-1.095h-1.091c-.655 0-1.092-.438-1.092-1.095v-4.379c0-.657.437-1.095 1.092-1.095h5.02zm22.919-12.7v-.875c0-.22-.219-.657-.655-.657h-3.056c-.655 0-.655.438-.655 1.751 0 1.533 0 1.533 2.183 1.533s2.183-.219 2.183-1.752zm-3.929-7.006c-.437 0-.655-.22-.873-.657-.219-.438-.655-1.095-.873-1.314-.219-.22-.219-.438-.219-.657 0-.438.655-.876 1.092-.876.873 0 1.964 1.97 1.964 2.628 0 .438-.436.876-1.091.876zm5.893-3.942h-8.294c-.873 0-1.092-.438-1.092-.876s.437-1.094 1.092-1.094h3.056V1.594c0-.657.654-1.095 1.091-1.095.655 0 1.31.438 1.31 1.095v1.095h2.837c.655 0 1.092.438 1.092 1.094 0 .657-.437.876-1.092.876zm.437 6.131h-8.949c-.874 0-1.092-.438-1.092-.876-.218-.657.218-1.094.873-1.094h4.584c.437-.657 1.091-2.19 1.31-3.285.218-.657.654-.876 1.091-.876.655 0 1.31.438 1.31 1.095s-1.092 2.409-1.31 2.847h2.183c.655.219 1.091.656 1.091 1.094 0 .657-.436 1.095-1.091 1.095zm0 6.35c0 1.095-.873 1.97-2.183 2.19h-2.183c-3.929 0-4.583 0-4.583-3.504v-1.751a1.96 1.96 0 011.964-1.971h4.802c1.31 0 2.183.876 2.183 1.97v3.066zm5.893-.438c-1.746 0-1.964-1.095-1.964-1.533 0-.656.436-1.313 1.091-1.313h.655c.436 0 1.091 0 1.091-1.533 0-1.095-.436-1.97-1.091-2.847-.437-.656-.655-1.313-.655-1.97s.218-1.095.437-1.533c.218-.657.873-2.19.873-2.409 0-.219 0-.437-1.31-.437-1.091 0-1.528 0-1.528.656v14.89c0 .657-.655 1.095-1.091 1.095-.655 0-1.31-.438-1.31-1.095V3.564c0-1.532.873-2.408 2.183-2.408h3.492c1.528 0 2.401.876 2.401 1.97 0 .876-.436 1.752-1.528 3.723-.218.219-.218.657-.218.876 0 .438.218.657.437 1.095.654 1.094 1.527 2.408 1.527 4.16 0 2.627-1.746 3.722-3.492 3.722zm-33.177-5.912v-.438c0-.438-.219-.657-3.929-.657h-3.274c-.655 0-.873.438-.873.438v.438h8.076v.22zm0 3.723v-.438h-8.076v.438c0 .438.218.438 3.928.438h3.056c.873.218 1.092 0 1.092-.438zm.218-1.533v-.876h-8.076v.876h8.076zm-10.259-5.912l.218-1.752c-1.964 1.314-2.401 1.533-2.837 1.533-.655 0-1.092-.657-1.092-1.095 0-.438.219-.657.655-.876 1.965-.876 3.929-2.408 5.457-4.379.218-.219.655-.438.873-.438.655 0 1.31.657 1.31 1.095 0 .219 0 .438-.218.657l-1.747 1.751-.218 3.504c0 .876-.655 1.095-1.31 1.095-.654 0-1.091-.22-1.091-1.095zm7.858-2.409v.22c0 .875.436.875 2.183.875 1.746 0 2.837-.219 2.837-1.314 0-.657.655-.876 1.092-.876.436 0 1.309.22 1.309 1.095 0 2.628-2.183 3.066-5.238 3.066-2.401 0-4.802 0-4.802-2.409V1.375c.436-.876.873-1.314 1.528-1.314.654 0 1.091.438 1.091 1.095v1.533c1.528-.438 3.056-1.095 4.365-1.533.219 0 .437-.22.437-.22.655 0 1.31.658 1.31 1.096 0 .438-.219.876-.874 1.095-1.527.437-3.71 1.094-5.238 1.532zm2.183 12.043h-.437c1.528.657 2.838.876 4.584.876.873 0 1.309.657 1.309 1.095 0 .657-.436 1.095-1.309 1.095s-3.493-.438-5.894-1.533c-.436-.219-.654-.657-.654-.876 0-.219.218-.657.436-.876h-3.492c.218.22.218.438.218.876s-.218.657-.655.876c-1.746.876-4.365 1.752-5.893 1.752-.873 0-1.31-.657-1.31-1.095 0-.438.437-1.095 1.31-1.095 1.746-.219 3.056-.438 4.584-1.095h-.219c-1.528 0-2.182-.657-2.182-1.533V9.914c0-.657.654-1.532 2.182-1.532h7.858c1.528 0 2.183.875 2.401 1.532v5.255c-.655.876-1.528 1.533-2.837 1.533zm-32.96-8.32V6.849c-1.746 0-2.182 0-2.182.657v.876h2.183zm2.183 0h2.401v-.876c0-.22-.218-.657-.655-.657H94.85v1.533h-.218zm-2.183 2.846V9.914h-2.182v1.314h2.183zm4.584 0V9.914h-2.4v1.314h2.4zM85.465 5.754c-.437 0-.655-.219-.873-.438-.655-.876-1.528-1.533-2.183-1.97-.437-.22-.437-.438-.437-.876 0-.657.655-1.095 1.31-1.095s3.492 1.533 3.492 2.846c0 .876-.654 1.533-1.31 1.533zm0 11.386c-1.965 2.19-2.62 2.628-3.274 2.628-.873 0-1.528-.657-1.528-1.314 0-.438.218-.657.655-.876 1.091-.657 2.182-1.314 2.837-2.19v-3.503c0-.438-.218-.438-.873-.438h-.873c-.437 0-1.31 0-1.31-1.095 0-.657.437-1.095 1.092-1.095h2.182c1.528 0 2.183.657 2.183 2.19v4.16c1.31 1.752 3.71 2.19 6.548 2.19 2.183 0 4.584-.219 6.33-.438h.219c.873 0 1.309.657 1.309 1.314s-.436 1.095-1.31 1.314c-1.746-.22-3.71-.22-5.675-.22-5.456 0-6.766-.875-8.512-2.627zm11.568-3.722v-.438h-2.4v2.846c0 .657-.437.876-1.092.876-.437 0-1.091-.438-1.091-.876V12.98h-2.183v2.846c0 .657-.437 1.095-1.092 1.095-.436 0-1.09-.438-1.09-1.095V7.287c0-1.314.654-1.97 2.182-1.97h1.528c-1.092-.658-1.092-.658-1.092-.877 0-.438.437-.876 1.092-.876.436 0 1.31.438 1.528.657.436-.219 1.746-.876 1.746-1.094 0 0 0-.22-.219-.22-1.527 0-4.365 0-6.111.22-.655 0-.873-.438-.873-.876s.218-1.095.873-1.095h7.422c1.309 0 1.964.657 1.964 1.314 0 1.094-1.747 1.97-3.275 2.846h1.747c1.528 0 2.182.657 2.182 2.19v7.007c0 1.313-.654 2.408-2.4 2.408-1.31 0-1.747-.438-1.747-1.095 0-.438.218-1.095.873-1.095h.437c.873-.437 1.091-.656 1.091-1.313zM66.257 4.44v-.657c0-.656-.219-.656-2.183-.656-1.746 0-1.746 0-1.964.656v.657h4.147zm0 3.066V6.192H62.11v1.314h4.147zm0 1.97H62.11v.657c0 .876.654.876 1.746.876 1.964 0 2.182 0 2.182-.876.219-.219.219-.438.219-.657zm-5.239 6.57c-.218 0-.654-.22-.873-.439-.436-.656-1.091-1.094-1.528-1.532-.436-.22-.436-.438-.436-.657 0-.438.655-1.095 1.31-1.095.654 0 2.837 1.314 2.837 2.409 0 .656-.655 1.313-1.31 1.313zm7.203 2.627c-.436 0-.654-.22-.873-.657-.436-.876-1.31-1.752-1.964-2.19-.437-.219-.437-.657-.437-.876 0-.656.437-1.094 1.091-1.094 1.31 0 3.056 2.408 3.275 2.627.218.22.218.438.218.657 0 1.095-.655 1.533-1.31 1.533zm-16.588.657c-.655 0-1.31-.657-1.31-1.314 0-.438.218-.876.655-1.095.436-.219 1.528-1.314 1.746-1.752a1.2 1.2 0 011.091-.656c.655 0 1.31.438 1.31 1.094 0 1.095-2.183 3.723-3.492 3.723zm10.913-2.628c0-.657.437-.876 1.092-.876.654 0 1.31.438 1.31.876 0 2.19-.656 2.847-5.24 2.847-3.492 0-4.365-.657-4.365-2.628v-2.408c0-.657.655-1.095 1.31-1.095s1.31.438 1.31 1.095v2.19c0 .656.654.875 2.182.875 1.965.219 2.401 0 2.401-.876zm-8.076-4.817v-4.16c-2.183 3.284-3.056 3.284-3.274 3.284-.655 0-1.091-.657-1.091-1.095 0-.219.218-.657.436-.875 1.092-.876 2.62-2.41 3.93-3.942h-2.402c-.655 0-1.091-.438-1.091-1.095 0-.438.436-1.094 1.091-1.094h2.401V1.156c0-.876.655-1.095 1.092-1.095.654 0 1.09.438 1.09 1.095v1.752h1.965c.655 0 .873.437.873 1.094 0 .438-.436 1.095-.873 1.095h-1.964v.876h.218c.437 0 2.62.876 2.62 1.97 0 .658-.437 1.096-1.092 1.096-.218 0-.437-.22-.655-.438l-1.091-1.095c0 3.503.218 4.16.218 4.16 0 .657-.655.876-1.091.876-.873.219-1.31 0-1.31-.657zm13.751-1.314c0 1.095-.873 1.97-2.183 2.19H62.11c-1.528 0-2.183-.876-2.183-1.97V3.564c0-.875.655-1.97 2.183-1.97h3.929c1.31 0 2.182.876 2.182 1.97v7.007zM34.39 8.381h-2.401c.218 1.533.655 3.066 1.528 4.38 1.091-1.752 1.31-3.722 1.31-3.941 0-.22 0-.438-.437-.438zm-12.223.876c-1.092 1.314-1.746 1.533-2.183 1.533-.655 0-1.091-.438-1.091-1.095 0-.219.218-.656.436-.875 2.183-1.971 3.93-4.38 5.239-7.445 0-.657.436-.876.873-.876.655 0 1.31.438 1.31 1.314 0 .657-1.528 3.284-2.183 4.16v12.919c0 .876-.655 1.095-1.31 1.095s-1.31-.22-1.31-1.095l.219-9.635zm14.842-5.255h-6.984c-.437 0-.655.22-.655.657v1.97h5.893c1.091 0 1.965.658 1.965 1.753 0 1.094-.873 3.94-2.62 6.569 1.092 1.094 2.183 1.751 3.493 2.408.654.219.873.657.873 1.095.218.438-.437 1.314-1.31 1.314-1.528 0-3.929-2.628-4.365-3.066-2.183 2.19-4.366 3.066-4.802 3.066-.655 0-1.092-.657-1.092-1.314 0-.438.219-.876.655-1.095 1.528-.657 2.838-1.533 3.929-2.846-1.31-1.533-2.183-3.723-2.183-6.131h-.436c0 3.722-.437 7.882-2.62 10.51-.218.438-.654.438-.873.438-.654 0-1.31-.438-1.31-1.095 0-.219 0-.438.22-.657 1.963-2.627 2.4-5.693 2.4-8.758 0-1.752-.218-3.504-.218-5.037 0-1.313.873-2.19 2.4-2.19h7.64c.873 0 1.092.658 1.092 1.096.218.656-.219 1.313-1.092 1.313z" fill="#D1D1D1"/></svg>